<?xml version="1.0" encoding="UTF-8" standalone="no"?>
<!DOCTYPE svg PUBLIC "-//W3C//DTD SVG 1.0//EN"
"http://www.w3.org/TR/2001/REC-SVG-20010904/DTD/svg10.dtd">
<!-- Created with Sodipodi ("http://www.sodipodi.com/") -->
<svg
   xmlns="http://www.w3.org/2000/svg"
   xmlns:xlink="http://www.w3.org/1999/xlink"
   version="1.0"
   x="0"
   y="0"
   width="354.330688"
   height="354.330688"
   id="svg620"
   xml:space="preserve"><defs
   id="defs622" /><g
   transform="matrix(1.38939,0,0,1.39,-162.8163,-618.7101)"
   style="font-size:12;"
   id="g638"><path
   d="M 184.1155 485.4331 L 245.4874 450 L 306.8593 485.4331 L 306.8593 556.2992 L 245.4874 591.7323 L 184.1155 556.2992 L 184.1155 485.4331 z "
   style="fill:#800000;fill-rule:evenodd;stroke:#000000;stroke-width:3.5433;"
   id="path616" /><path
   d="M 306.8593 556.2992 L 368.2311 591.7323 L 368.2311 662.5984 L 306.8593 698.0315 L 245.4874 662.5984 L 245.4874 591.7323 L 306.8593 556.2992 z "
   style="fill:#008000;fill-rule:evenodd;stroke:#000000;stroke-width:3.5433;"
   id="path617" /><path
   d="M 184.1155 556.2939 L 122.7437 591.7283 L 122.7437 662.597 L 184.1155 698.0314 L 245.4874 662.597 L 245.4874 591.7283 L 184.1155 556.2939 z "
   style="fill:#c37f41;fill-rule:evenodd;stroke:#000000;stroke-width:3.543365;"
   id="path618" /><ellipse
   cx="276.17334"
   cy="538.582642"
   rx="30.6859283"
   ry="17.7165222"
   transform="matrix(0.814706,0,0,1.411112,81.85915,-132.835)"
   style="fill:#ffdab9;fill-rule:evenodd;stroke:#000000;stroke-width:1.6523;"
   id="path624" /><ellipse
   cx="276.17334"
   cy="538.582642"
   rx="30.6859283"
   ry="17.7165222"
   transform="matrix(0.814706,0,0,1.411112,-40.88452,-132.835)"
   style="fill:#ffdab9;fill-rule:evenodd;stroke:#000000;stroke-width:1.6523;"
   id="path625" /><ellipse
   cx="276.17334"
   cy="538.582642"
   rx="30.6859283"
   ry="17.7165222"
   transform="matrix(0.814706,0,0,1.411112,21.57656,-239.1342)"
   style="fill:#ffdab9;fill-rule:evenodd;stroke:#000000;stroke-width:1.6523;"
   id="path626" /><text
   x="95.3142548"
   y="212.637573"
   transform="translate(141.3132,320.9463)"
   style="font-size:36;font-weight:normal;fill:#ff0000;stroke-width:1;font-family:FreeSans;"
   id="text627"><tspan
   id="tspan628">8</tspan></text><text
   x="70.7458191"
   y="254.86348"
   transform="translate(104.0006,385.1866)"
   style="font-size:36;font-weight:normal;stroke-width:1;font-family:FreeSans;"
   id="text630"><tspan
   id="tspan631">4</tspan></text><text
   x="88.1663055"
   y="224.654419"
   transform="translate(208.7261,415.2287)"
   style="font-size:36;font-weight:normal;stroke-width:1;font-family:FreeSans;"
   id="text633"><tspan
   id="tspan634">9</tspan></text></g><g
   transform="translate(11.43002,43.43407)"
   style="font-size:12;stroke:#000000;"
   id="Layer_x0020_7"><path
   d="M 64 52 L 0 52 L 0 0 L 64 0 L 64 52 z "
   style="fill:none;stroke:none;"
   id="path2054" /></g><g
   transform="matrix(1.328155,0,0,1.328155,-155.5644,-103.0208)"
   style="font-size:12;"
   id="g2638"><g
   transform="matrix(7,0,0,7,-76.57004,-14.22342)"
   style="fill:#dedede;stroke:#000000;"
   id="Layer_x0020_5"><g
   style="opacity:0.35;"
   id="g1895"><path
   d="M 30 43.4 L 41.1 35.9 C 41.7 35.5 42.6 35.4 43.3 35.6 L 62.1 41.5 C 62.7 41.7 62.8 42.2 62.3 42.6 L 61.6 43.1 C 60.5 44.1 63.7 43.9 62.3 45.1 L 55.8 50.3 C 54.7 51.4 53.2 49.4 52.1 50.2 L 50.9 51 C 50.4 51.4 45.6 51.2 45.6 51.2 L 30 43.4 z "
   style="fill:#000000;stroke:none;"
   id="path1896" /></g><path
   d="M 57.4 36.4 C 57.4 36.4 57.4 36.4 57.4 36.4 C 57.4 36.4 57.3 36.4 57.3 36.3 C 56.8 36.1 44.3 32.2 43.7 32 C 43.1 31.8 42.3 31.7 42 31.8 C 41.7 31.9 31 37.5 30.4 37.9 C 30.3 37.9 30.3 38 30.2 38.1 C 29.4 38.7 29.4 39.7 29.4 39.7 C 29.4 39.7 29.4 39.7 29.4 39.6 C 29.4 39.6 29.4 39.7 29.4 39.7 L 29.5 42.4 C 29.5 42.9 29.6 43.2 30 43.4 C 30 43.4 43.3 49.3 44.9 49.7 C 45 49.7 45 49.7 45.1 49.7 C 45.1 49.7 45.1 49.7 45.1 49.7 C 45.8 49.9 46 49.8 46.4 49.6 C 46.4 49.6 46.5 49.6 46.5 49.5 C 46.8 49.3 57.4 41.8 57.8 41.5 C 58.1 41.2 58.2 41 58.2 40.7 C 58.2 40.4 58.5 38.3 58.5 37.9 C 58.5 37.9 58.5 37.8 58.5 37.8 C 58.5 37.8 58.5 37.8 58.5 37.8 C 58.6 37.4 58.6 36.6 57.4 36.3 L 57.4 36.4 z M 45.8 49.2 C 45.8 49.2 45.8 49.2 45.8 49.2 L 45.8 49.2 L 45.8 49.2 C 45.8 49.2 45.8 49.3 45.8 49.3 C 45.8 49.3 45.8 49.2 45.8 49.2 L 45.8 49.2 z M 57 38 C 57.4 37.7 57.7 37.5 57.7 37.5 C 57.7 37.5 57.4 37.7 57 38 C 56.3 38.5 55.3 39.1 54.2 39.8 C 56 38.6 57.6 37.6 58 37.3 C 57.9 37.4 57.6 37.6 57.1 37.9 L 57 38 z "
   style="fill:#000000;stroke-width:3.0514;stroke-linecap:round;stroke-linejoin:round;"
   id="path1897" /><linearGradient
   x1="31.8530006"
   y1="38.8017998"
   x2="59.2714996"
   y2="38.8017998"
   id="aigrd78"
   gradientUnits="userSpaceOnUse"
   gradientTransform="matrix(0.9935,0.1137,-0.1137,0.9935,3.2959,-5.4479)"><stop
   style="stop-color:#ebebeb;stop-opacity:1;"
   offset="0"
   id="stop1899" /><stop
   style="stop-color:#eaeaea;stop-opacity:1;"
   offset="1"
   id="stop1900" /></linearGradient><path
   d="M 43.7 32.1 C 43.1 31.9 42.3 31.8 42 31.9 C 41.7 32 31 37.6 30.4 38 C 29.8 38.3 29.7 39 30.4 39.2 C 31.1 39.5 44.6 44.4 45.2 44.6 C 45.8 44.8 46.7 44.8 47 44.6 C 47.3 44.4 57.7 37.6 58.1 37.4 C 58.4 37.1 57.9 36.6 57.4 36.5 C 56.9 36.3 44.4 32.4 43.8 32.2 L 43.7 32.1 z "
   style="fill:url(#aigrd78);stroke:none;"
   id="path1901" /><linearGradient
   x1="32.5639992"
   y1="45.1171989"
   x2="47.0684013"
   y2="46.1618996"
   id="aigrd79"
   gradientUnits="userSpaceOnUse"
   gradientTransform="matrix(0.9935,0.1137,-0.1137,0.9935,3.2959,-5.4479)"><stop
   style="stop-color:#f8f8f8;stop-opacity:1;"
   offset="0"
   id="stop1903" /><stop
   style="stop-color:#c9c9c9;stop-opacity:1;"
   offset="1"
   id="stop1904" /></linearGradient><path
   d="M 29.4 39.7 C 29.4 39.2 29.8 38.9 30.1 39 C 30.5 39.1 44.9 44.5 45.4 44.8 C 45.9 45.1 46.2 45.3 46.2 45.8 C 46.2 46.2 45.9 48.7 45.8 49 C 45.8 49.4 45.4 49.8 44.9 49.6 C 43.3 49.3 30 43.4 30 43.4 C 29.6 43.2 29.5 43 29.5 42.4 L 29.4 39.7 L 29.4 39.7 z "
   style="fill:url(#aigrd79);stroke:none;"
   id="path1905" /><linearGradient
   x1="49.9141006"
   y1="47.6913986"
   x2="58.8602982"
   y2="37.1593018"
   id="aigrd80"
   gradientUnits="userSpaceOnUse"
   gradientTransform="matrix(0.9935,0.1137,-0.1137,0.9935,3.2959,-5.4479)"><stop
   style="stop-color:#9f9f9f;stop-opacity:1;"
   offset="0"
   id="stop1907" /><stop
   style="stop-color:#828282;stop-opacity:1;"
   offset="1"
   id="stop1908" /></linearGradient><path
   d="M 46.5 49.6 C 46.2 49.8 45.7 49.5 45.8 49 C 45.9 48.5 46.1 46.2 46.2 45.8 C 46.3 45.4 46.5 45 46.8 44.7 C 47.1 44.5 57.6 37.7 58 37.4 C 58.4 37.1 58.6 37.7 58.5 38 C 58.5 38.4 58.2 40.5 58.2 40.8 C 58.2 41.1 58.1 41.3 57.8 41.6 C 57.5 41.9 46.8 49.4 46.5 49.6 L 46.5 49.6 z "
   style="fill:url(#aigrd80);stroke:none;"
   id="path1909" /><g
   style="fill:#ffffff;stroke:none;"
   id="g1910"><path
   d="M 45.8 44.5 C 44.9 44.4 30.1 38.8 30 38.8 C 29.9 38.8 30 38.2 30.4 38 C 29.4 38.6 29.4 39.7 29.4 39.7 C 29.4 39.7 29.5 39.2 30 39.1 C 31.8 39.8 44.6 44.8 45.1 44.9 C 45.6 45.1 45.8 45.7 45.8 46.2 L 45.9 49.2 L 46.3 46.2 C 46.4 45.7 46.6 44.8 47.2 44.5 C 47.5 44.3 54.3 39.8 56.8 38.1 C 54.2 39.8 47 44.5 45.8 44.4 L 45.8 44.5 z "
   id="path1911" /><path
   d="M 56.8 38.2 C 57.4 37.8 57.7 37.6 57.7 37.6 C 57.7 37.6 57.3 37.8 56.8 38.2 z "
   id="path1912" /></g><path
   d="M 46.4 49.6 C 46.1 49.9 45.8 49.9 45.1 49.7 C 45.6 49.6 45.8 49.2 45.8 49.2 C 45.8 49.2 45.9 49.5 46.4 49.5 L 46.4 49.6 z "
   style="fill:#848484;stroke:none;"
   id="path1913" /><path
   d="M 57.4 36.4 C 58 36.7 58.2 37.1 57.9 37.4 C 58.2 37.2 58.4 38 58.4 38 C 58.5 37.6 58.5 36.8 57.3 36.5 L 57.4 36.4 z "
   style="fill:#545454;stroke:none;"
   id="path1914" /><linearGradient
   x1="39.0839996"
   y1="46.0723"
   x2="44.1825981"
   y2="46.0723"
   id="aigrd81"
   gradientUnits="userSpaceOnUse"
   gradientTransform="matrix(0.9993,3.660465e-2,-3.660465e-2,0.9993,1.7818,-1.8851)"><stop
   style="stop-color:#2a2a2a;stop-opacity:1;"
   offset="0"
   id="stop1916" /><stop
   style="stop-color:#585858;stop-opacity:1;"
   offset="0.4743"
   id="stop1917" /><stop
   style="stop-color:#878787;stop-opacity:1;"
   offset="1"
   id="stop1918" /></linearGradient><path
   d="M 39.2 44.4 L 39.2 45 L 44.2 47 L 44.2 46.4 L 39.2 44.4 z "
   style="fill:url(#aigrd81);stroke:none;"
   id="path1919" /><path
   d="M 39.2 45 L 38.9 45.2 L 38.9 43.9 L 44.4 46.1 L 44.2 46.4 L 39.2 44.4 L 39.2 45 L 39.2 45 z "
   style="opacity:0.22;fill:#000000;stroke:none;"
   id="path1920" /><path
   d="M 44.4 47.4 L 44.4 46.2 L 44.2 46.5 L 44.2 47.1 L 39.2 45.1 L 38.9 45.3 L 44.4 47.5 L 44.4 47.4 z "
   style="opacity:0.72;fill:#ffffff;stroke:none;"
   id="path1921" /><linearGradient
   x1="55.0634995"
   y1="38.9384995"
   x2="51.4311981"
   y2="45.7360992"
   id="aigrd82"
   gradientUnits="userSpaceOnUse"
   gradientTransform="matrix(0.9993,3.660465e-2,-3.660465e-2,0.9993,1.7818,-1.8851)"><stop
   style="stop-color:#ffffff;stop-opacity:1;"
   offset="0"
   id="stop1923" /><stop
   style="stop-color:#ffffff;stop-opacity:1;"
   offset="1"
   id="stop1924" /></linearGradient><path
   d="M 58.4 39.8 L 46.8 47.6 L 46.8 48 L 58.4 40.1 L 58.4 39.8 z "
   style="opacity:0.13;fill:url(#aigrd82);stroke:none;"
   id="path1925" /><linearGradient
   x1="55.0634995"
   y1="37.9443016"
   x2="51.4308014"
   y2="44.7425995"
   id="aigrd83"
   gradientUnits="userSpaceOnUse"
   gradientTransform="matrix(0.9993,3.660465e-2,-3.660465e-2,0.9993,1.7818,-1.8851)"><stop
   style="stop-color:#ffffff;stop-opacity:1;"
   offset="0"
   id="stop1927" /><stop
   style="stop-color:#ffffff;stop-opacity:1;"
   offset="1"
   id="stop1928" /></linearGradient><path
   d="M 58.4 38.8 L 46.8 46.6 L 46.8 47 L 58.4 39.1 L 58.4 38.8 z "
   style="opacity:0.13;fill:url(#aigrd83);stroke:none;"
   id="path1929" /><linearGradient
   x1="55.0634995"
   y1="38.6171989"
   x2="51.4300995"
   y2="45.4166985"
   id="aigrd84"
   gradientUnits="userSpaceOnUse"
   gradientTransform="matrix(0.9993,3.660465e-2,-3.660465e-2,0.9993,1.7818,-1.8851)"><stop
   style="stop-color:#000000;stop-opacity:1;"
   offset="0"
   id="stop1931" /><stop
   style="stop-color:#6a6a6a;stop-opacity:1;"
   offset="1"
   id="stop1932" /></linearGradient><path
   d="M 58.4 39.5 L 46.8 47.3 L 46.8 47.7 L 58.4 39.8 L 58.4 39.5 z "
   style="opacity:0.13;fill:url(#aigrd84);stroke:none;"
   id="path1933" /><linearGradient
   x1="55.0615005"
   y1="37.625"
   x2="51.4295006"
   y2="44.4221001"
   id="aigrd85"
   gradientUnits="userSpaceOnUse"
   gradientTransform="matrix(0.9993,3.660465e-2,-3.660465e-2,0.9993,1.7818,-1.8851)"><stop
   style="stop-color:#000000;stop-opacity:1;"
   offset="0"
   id="stop1935" /><stop
   style="stop-color:#6a6a6a;stop-opacity:1;"
   offset="1"
   id="stop1936" /></linearGradient><path
   d="M 58.4 38.5 L 46.8 46.3 L 46.8 46.7 L 58.4 38.8 L 58.4 38.5 z "
   style="opacity:0.13;fill:url(#aigrd85);stroke:none;"
   id="path1937" /><g
   style="opacity:0.45;"
   id="g1938"><path
   d="M 43.1 34.3 C 41.4 33.8 38.8 34 37.3 34.7 L 33.1 36.8 C 31.5 37.6 31.6 38.7 33.2 39.3 L 46.5 44.3 L 46.9 44.8 L 48.1 48.7 L 57.1 42.5 L 55.7 38.9 C 55.7 38.9 54.9 38.2 54 37.9 L 43 34.4 L 43.1 34.3 z "
   style="opacity:0.3;fill:#000000;stroke:none;"
   id="path1939" /></g><radialGradient
   cx="41.7655983"
   cy="33.1688995"
   r="8.16800022"
   fx="41.7655983"
   fy="33.1688995"
   id="aigrd86"
   gradientUnits="userSpaceOnUse"
   gradientTransform="matrix(0.9993,3.660465e-2,-3.660465e-2,0.9993,1.7818,-1.8851)"><stop
   style="stop-color:#b6b6b6;stop-opacity:1;"
   offset="0"
   id="stop1941" /><stop
   style="stop-color:#878787;stop-opacity:1;"
   offset="1"
   id="stop1942" /></radialGradient><path
   d="M 44.1 33 C 40.3 32.9 37.2 34.1 37.2 35.7 L 37.2 36.5 C 37.1 38.1 40.1 39.6 43.9 39.7 C 47.7 39.8 50.8 38.6 50.8 37 L 50.8 36.2 C 50.9 34.6 47.9 33.1 44.1 33 z "
   style="fill:url(#aigrd86);stroke-width:1.9099;stroke-linecap:round;stroke-linejoin:round;"
   id="path1943" /><path
   d="M 44.1 33 C 40.3 32.9 37.2 34.1 37.2 35.7 L 37.2 36.5 C 37.1 38.1 40.1 39.6 43.9 39.7 C 47.7 39.8 50.8 38.6 50.8 37 L 50.8 36.2 C 50.9 34.6 47.9 33.1 44.1 33 z "
   style="fill:url(#aigrd86);stroke:none;"
   id="path1944" /><path
   d="M 37.3 35.3 C 37.4 36.6 38.9 38.5 45.1 38.9 C 40.3 39.2 36.6 37.7 37.3 35.3 z "
   style="fill:#b3b3b3;stroke:none;"
   id="path1945" /><g
   id="g1946"><path
   d="M 53.1 20 C 53.2 19.7 53.1 19.3 52.9 19.3 C 52.7 19.3 52.6 19.2 52.6 19.2 C 52.6 19.2 52.6 19.2 52.6 19.2 C 52.6 19.2 52.3 19.1 52 19.1 L 34.9 15.3 C 34.6 15.2 34.1 15.2 33.9 15.2 C 33.7 15.2 33.4 15.2 33.2 15.2 C 33 15.2 32.9 15.5 32.8 15.8 L 29.8 32 C 29.7 32.3 30 32.7 30.3 32.8 L 46.5 38.2 C 46.8 38.3 47.1 38.4 47.1 38.4 C 47.1 38.4 47.2 38.4 47.4 38.5 C 47.6 38.6 47.8 38.6 47.9 38.6 C 48 38.6 48.1 38.6 48.2 38.5 C 48.3 38.5 48.5 38.4 48.5 38.4 C 48.5 38.4 48.7 38.4 48.9 38.3 C 49.1 38.2 49.3 37.9 49.4 37.6 L 53.1 20 z "
   style="fill:#000000;stroke:none;"
   id="path1947" /><path
   d="M 53.1 20 C 53.2 19.7 53.1 19.3 52.9 19.3 C 52.7 19.3 52.6 19.2 52.6 19.2 C 52.6 19.2 52.6 19.2 52.6 19.2 C 52.6 19.2 52.3 19.1 52 19.1 L 34.9 15.3 C 34.6 15.2 34.1 15.2 33.9 15.2 C 33.7 15.2 33.4 15.2 33.2 15.2 C 33 15.2 32.9 15.5 32.8 15.8 L 29.8 32 C 29.7 32.3 30 32.7 30.3 32.8 L 46.5 38.2 C 46.8 38.3 47.1 38.4 47.1 38.4 C 47.1 38.4 47.2 38.4 47.4 38.5 C 47.6 38.6 47.8 38.6 47.9 38.6 C 48 38.6 48.1 38.6 48.2 38.5 C 48.3 38.5 48.5 38.4 48.5 38.4 C 48.5 38.4 48.7 38.4 48.9 38.3 C 49.1 38.2 49.3 37.9 49.4 37.6 L 53.1 20 z "
   style="fill:none;stroke-width:3.0514;stroke-linecap:round;stroke-linejoin:round;"
   id="path1948" /></g><g
   id="g1949"><linearGradient
   x1="31.6909008"
   y1="26.7201996"
   x2="48.2454987"
   y2="27.9125996"
   id="aigrd88"
   gradientUnits="userSpaceOnUse"
   gradientTransform="matrix(0.9993,3.660465e-2,-3.660465e-2,0.9993,1.7818,-1.8851)"><stop
   style="stop-color:#f8f8f8;stop-opacity:1;"
   offset="0"
   id="stop1951" /><stop
   style="stop-color:#c9c9c9;stop-opacity:1;"
   offset="1"
   id="stop1952" /></linearGradient><path
   d="M 33.7 15.3 C 33.3 15.2 32.8 15.5 32.7 15.9 L 29.8 31.7 C 29.7 32.2 30 32.6 30.4 32.8 L 47 38.4 C 47.4 38.5 47.9 38.3 48 37.8 L 51.8 20.1 C 51.9 19.7 51.6 19.2 51.2 19.1 L 33.8 15.3 L 33.7 15.3 z "
   style="fill:url(#aigrd88);stroke:none;"
   id="path1953" /></g><g
   id="g1954"><linearGradient
   x1="45.7695007"
   y1="33.7275009"
   x2="54.7426987"
   y2="23.1637993"
   id="aigrd89"
   gradientUnits="userSpaceOnUse"
   gradientTransform="matrix(0.9993,3.660465e-2,-3.660465e-2,0.9993,1.7818,-1.8851)"><stop
   style="stop-color:#9f9f9f;stop-opacity:1;"
   offset="0"
   id="stop1956" /><stop
   style="stop-color:#828282;stop-opacity:1;"
   offset="1"
   id="stop1957" /></linearGradient><path
   d="M 49.5 37.5 C 49.4 37.9 49 38.4 48.6 38.5 C 48.2 38.6 47.9 38.3 48 37.8 L 51.8 20.1 C 51.9 19.7 52.3 19.3 52.6 19.3 C 53 19.3 53.2 19.7 53.1 20.1 L 49.5 37.4 L 49.5 37.5 z "
   style="fill:url(#aigrd89);stroke:none;"
   id="path1958" /></g><path
   d="M 48.6 38.4 C 48.2 38.6 47.8 38.5 47.2 38.4 C 47.7 38.3 47.9 37.9 47.9 37.9 C 47.9 37.9 48 38.5 48.5 38.5 L 48.6 38.4 z "
   style="fill:#848484;stroke:none;"
   id="path1959" /><path
   d="M 51.1 19.3 C 51.5 19.4 51.8 19.5 51.5 20.5 L 48.3 35.3 L 48 37.7 L 48.7 35.3 L 51.9 20.1 C 52 19.6 52.3 19.4 52.6 19.3 L 33.7 15.2 C 33.6 15.2 33.5 15.1 33.5 15.1 C 33.1 15.1 32.8 15.5 32.8 15.9 C 33 15.5 33.2 15.3 33.6 15.4 L 51.2 19.3 L 51.1 19.3 z "
   style="fill:#ffffff;stroke:none;"
   id="path1960" /><g
   id="g1961"><linearGradient
   x1="39.1200981"
   y1="19.6478996"
   x2="39.1200981"
   y2="32.1001015"
   id="aigrd90"
   gradientUnits="userSpaceOnUse"
   gradientTransform="matrix(0.9994,3.430621e-2,-3.430621e-2,0.9994,1.5171,-1.6057)"><stop
   style="stop-color:#000000;stop-opacity:1;"
   offset="0"
   id="stop1963" /><stop
   style="stop-color:#3a4a70;stop-opacity:1;"
   offset="1"
   id="stop1964" /></linearGradient><path
   d="M 44.8 34.4 L 31.7 30.1 L 34 17 L 47.8 20.2 L 44.8 34.5 L 44.8 34.4 z "
   style="fill:url(#aigrd90);stroke-width:0.3945;"
   id="path1965" /><linearGradient
   x1="39.2969017"
   y1="19.6928997"
   x2="39.2969017"
   y2="32.1450005"
   id="aigrd91"
   gradientUnits="userSpaceOnUse"
   gradientTransform="matrix(0.9994,3.430621e-2,-3.430621e-2,0.9994,1.5171,-1.6057)"><stop
   style="stop-color:#343340;stop-opacity:1;"
   offset="2.24717706e-2"
   id="stop1967" /><stop
   style="stop-color:#656796;stop-opacity:1;"
   offset="1"
   id="stop1968" /></linearGradient><path
   d="M 45 34.5 L 31.9 30.2 L 34.1 17 L 48 20.2 L 45 34.5 z "
   style="fill:url(#aigrd91);stroke:none;"
   id="path1969" /><g
   id="g1970"><linearGradient
   x1="39.6445007"
   y1="19.1322994"
   x2="39.6445007"
   y2="24.2212009"
   id="aigrd92"
   gradientUnits="userSpaceOnUse"
   gradientTransform="matrix(0.9994,3.430621e-2,-3.430621e-2,0.9994,1.5171,-1.6057)"><stop
   style="stop-color:#e7ebef;stop-opacity:1;"
   offset="0"
   id="stop1972" /><stop
   style="stop-color:#739167;stop-opacity:1;"
   offset="1"
   id="stop1973" /></linearGradient><path
   d="M 34.9 17.8 C 34.8 17.8 34.7 17.9 34.7 18.1 L 33.6 24.5 C 33.6 24.7 33.6 24.8 33.7 24.8 C 37.3 25 43.4 23.5 46.8 22.1 C 46.9 22 47 21.9 47 21.7 L 47.1 21.1 C 47.1 20.9 47.1 20.8 47 20.7 L 34.8 17.8 L 34.9 17.8 z "
   style="opacity:0.58;fill:url(#aigrd92);stroke:none;"
   id="path1974" /></g><g
   id="g1975" /></g><g
   style="stroke:none;"
   id="g1976"><g
   id="g1977"><g
   id="g1978"><g
   id="g1979"><linearGradient
   x1="46.8349991"
   y1="31.5020008"
   x2="47.4614983"
   y2="30.7644005"
   id="aigrd93"
   gradientUnits="userSpaceOnUse"
   gradientTransform="matrix(0.9993,3.660465e-2,-3.660465e-2,0.9993,1.7818,-1.8851)"><stop
   style="stop-color:#9f9f9f;stop-opacity:1;"
   offset="0"
   id="stop1981" /><stop
   style="stop-color:#828282;stop-opacity:1;"
   offset="1"
   id="stop1982" /></linearGradient><path
   d="M 48.7 31.1 L 47 30.6 L 46.9 31 L 48.6 31 L 48.7 31.1 z "
   style="fill:url(#aigrd93);"
   id="path1983" /><path
   d="M 48.5 31.5 L 48.6 31.1 L 46.9 31.1 L 48.5 31.5 z "
   id="path1984" /></g><g
   id="g1985"><linearGradient
   x1="47.1533012"
   y1="29.6044998"
   x2="47.7798004"
   y2="28.8668995"
   id="aigrd94"
   gradientUnits="userSpaceOnUse"
   gradientTransform="matrix(0.9993,3.660465e-2,-3.660465e-2,0.9993,1.7818,-1.8851)"><stop
   style="stop-color:#9f9f9f;stop-opacity:1;"
   offset="0"
   id="stop1987" /><stop
   style="stop-color:#828282;stop-opacity:1;"
   offset="1"
   id="stop1988" /></linearGradient><path
   d="M 49.1 29.2 L 47.4 28.8 L 47.3 29.2 L 49 29.2 L 49.1 29.2 z "
   style="fill:url(#aigrd94);"
   id="path1989" /><path
   d="M 48.9 29.6 L 49 29.2 L 47.3 29.2 L 48.9 29.6 z "
   id="path1990" /></g><g
   id="g1991"><linearGradient
   x1="47.4746017"
   y1="27.7080002"
   x2="48.1011009"
   y2="26.9703999"
   id="aigrd95"
   gradientUnits="userSpaceOnUse"
   gradientTransform="matrix(0.9993,3.660465e-2,-3.660465e-2,0.9993,1.7818,-1.8851)"><stop
   style="stop-color:#9f9f9f;stop-opacity:1;"
   offset="0"
   id="stop1993" /><stop
   style="stop-color:#828282;stop-opacity:1;"
   offset="1"
   id="stop1994" /></linearGradient><path
   d="M 49.5 27.3 L 47.8 26.9 L 47.7 27.3 L 49.4 27.3 L 49.5 27.3 z "
   style="fill:url(#aigrd95);"
   id="path1995" /><path
   d="M 49.3 27.7 L 49.4 27.3 L 47.7 27.3 L 49.3 27.7 z "
   id="path1996" /></g><g
   id="g1997"><linearGradient
   x1="47.7938995"
   y1="25.8115005"
   x2="48.4205017"
   y2="25.0739994"
   id="aigrd96"
   gradientUnits="userSpaceOnUse"
   gradientTransform="matrix(0.9993,3.660465e-2,-3.660465e-2,0.9993,1.7818,-1.8851)"><stop
   style="stop-color:#9f9f9f;stop-opacity:1;"
   offset="0"
   id="stop1999" /><stop
   style="stop-color:#828282;stop-opacity:1;"
   offset="1"
   id="stop2000" /></linearGradient><path
   d="M 49.8 25.4 L 48.2 25 L 48.1 25.4 L 49.8 25.4 L 49.8 25.4 z "
   style="fill:url(#aigrd96);"
   id="path2001" /><path
   d="M 49.7 25.8 L 49.8 25.4 L 48.1 25.4 L 49.7 25.8 z "
   id="path2002" /></g><g
   id="g2003"><linearGradient
   x1="48.1133003"
   y1="23.9150009"
   x2="48.7397995"
   y2="23.1774998"
   id="aigrd97"
   gradientUnits="userSpaceOnUse"
   gradientTransform="matrix(0.9993,3.660465e-2,-3.660465e-2,0.9993,1.7818,-1.8851)"><stop
   style="stop-color:#9f9f9f;stop-opacity:1;"
   offset="0"
   id="stop2005" /><stop
   style="stop-color:#828282;stop-opacity:1;"
   offset="1"
   id="stop2006" /></linearGradient><path
   d="M 50.2 23.5 L 48.5 23.1 L 48.4 23.5 L 50.1 23.5 L 50.2 23.5 z "
   style="fill:url(#aigrd97);"
   id="path2007" /><path
   d="M 50.1 23.9 L 50.2 23.5 L 48.5 23.5 L 50.1 23.9 z "
   id="path2008" /></g><g
   id="g2009"><linearGradient
   x1="48.4325981"
   y1="22.0186005"
   x2="49.0591011"
   y2="21.2810001"
   id="aigrd98"
   gradientUnits="userSpaceOnUse"
   gradientTransform="matrix(0.9993,3.660465e-2,-3.660465e-2,0.9993,1.7818,-1.8851)"><stop
   style="stop-color:#9f9f9f;stop-opacity:1;"
   offset="0"
   id="stop2011" /><stop
   style="stop-color:#828282;stop-opacity:1;"
   offset="1"
   id="stop2012" /></linearGradient><path
   d="M 50.6 21.6 L 49 21.2 L 48.9 21.6 L 50.6 21.6 L 50.6 21.6 z "
   style="fill:url(#aigrd98);"
   id="path2013" /><path
   d="M 50.5 22.1 L 50.6 21.7 L 48.9 21.7 L 50.5 22.1 z "
   id="path2014" /></g></g></g><g
   id="g2015"><g
   id="g2016"><g
   id="g2017"><linearGradient
   x1="48.7304993"
   y1="21.9965992"
   x2="49.1809998"
   y2="21.4661999"
   id="aigrd99"
   gradientUnits="userSpaceOnUse"
   gradientTransform="matrix(0.9993,3.660465e-2,-3.660465e-2,0.9993,1.7818,-1.8851)"><stop
   style="stop-color:#9f9f9f;stop-opacity:1;"
   offset="0"
   id="stop2019" /><stop
   style="stop-color:#828282;stop-opacity:1;"
   offset="1"
   id="stop2020" /></linearGradient><path
   d="M 49.2 21.6 L 50.4 21.9 L 50.5 21.6 L 49.2 21.6 L 49.2 21.6 z "
   style="fill:url(#aigrd99);"
   id="path2021" /><path
   d="M 49.3 21.3 L 49.2 21.6 L 50.5 21.6 L 49.3 21.3 L 49.3 21.3 z "
   id="path2022" /></g><g
   id="g2023"><linearGradient
   x1="48.419899"
   y1="23.8939991"
   x2="48.8703995"
   y2="23.3637009"
   id="aigrd100"
   gradientUnits="userSpaceOnUse"
   gradientTransform="matrix(0.9993,3.660465e-2,-3.660465e-2,0.9993,1.7818,-1.8851)"><stop
   style="stop-color:#9f9f9f;stop-opacity:1;"
   offset="0"
   id="stop2025" /><stop
   style="stop-color:#828282;stop-opacity:1;"
   offset="1"
   id="stop2026" /></linearGradient><path
   d="M 48.8 23.5 L 50 23.8 L 50.1 23.5 L 48.8 23.5 L 48.8 23.5 z "
   style="fill:url(#aigrd100);"
   id="path2027" /><path
   d="M 48.9 23.2 L 48.8 23.5 L 50.1 23.5 L 48.9 23.2 L 48.9 23.2 z "
   id="path2028" /></g><g
   id="g2029"><linearGradient
   x1="48.1094017"
   y1="25.7905006"
   x2="48.5598984"
   y2="25.2600994"
   id="aigrd101"
   gradientUnits="userSpaceOnUse"
   gradientTransform="matrix(0.9993,3.660465e-2,-3.660465e-2,0.9993,1.7818,-1.8851)"><stop
   style="stop-color:#9f9f9f;stop-opacity:1;"
   offset="0"
   id="stop2031" /><stop
   style="stop-color:#828282;stop-opacity:1;"
   offset="1"
   id="stop2032" /></linearGradient><path
   d="M 48.4 25.4 L 49.6 25.7 L 49.7 25.4 L 48.4 25.4 L 48.4 25.4 z "
   style="fill:url(#aigrd101);"
   id="path2033" /><path
   d="M 48.5 25.1 L 48.4 25.4 L 49.7 25.4 L 48.5 25.1 L 48.5 25.1 z "
   id="path2034" /></g><g
   id="g2035"><linearGradient
   x1="47.7988014"
   y1="27.6875"
   x2="48.2498016"
   y2="27.156601"
   id="aigrd102"
   gradientUnits="userSpaceOnUse"
   gradientTransform="matrix(0.9993,3.660465e-2,-3.660465e-2,0.9993,1.7818,-1.8851)"><stop
   style="stop-color:#9f9f9f;stop-opacity:1;"
   offset="0"
   id="stop2037" /><stop
   style="stop-color:#828282;stop-opacity:1;"
   offset="1"
   id="stop2038" /></linearGradient><path
   d="M 48.1 27.2 L 49.3 27.5 L 49.4 27.2 L 48.1 27.2 L 48.1 27.2 z "
   style="fill:url(#aigrd102);"
   id="path2039" /><path
   d="M 48.2 27 L 48.1 27.3 L 49.4 27.3 L 48.2 27 z "
   id="path2040" /></g><g
   id="g2041"><linearGradient
   x1="47.4883003"
   y1="29.5830002"
   x2="47.9384003"
   y2="29.0531006"
   id="aigrd103"
   gradientUnits="userSpaceOnUse"
   gradientTransform="matrix(0.9993,3.660465e-2,-3.660465e-2,0.9993,1.7818,-1.8851)"><stop
   style="stop-color:#9f9f9f;stop-opacity:1;"
   offset="0"
   id="stop2043" /><stop
   style="stop-color:#828282;stop-opacity:1;"
   offset="1"
   id="stop2044" /></linearGradient><path
   d="M 47.7 29.1 L 48.9 29.4 L 49 29.1 L 47.7 29.1 L 47.7 29.1 z "
   style="fill:url(#aigrd103);"
   id="path2045" /><path
   d="M 47.8 28.8 L 47.7 29.1 L 49 29.1 L 47.8 28.8 L 47.8 28.8 z "
   id="path2046" /></g><g
   id="g2047"><linearGradient
   x1="47.1777"
   y1="31.4804993"
   x2="47.6286011"
   y2="30.9496002"
   id="aigrd104"
   gradientUnits="userSpaceOnUse"
   gradientTransform="matrix(0.9993,3.660465e-2,-3.660465e-2,0.9993,1.7818,-1.8851)"><stop
   style="stop-color:#9f9f9f;stop-opacity:1;"
   offset="0"
   id="stop2049" /><stop
   style="stop-color:#828282;stop-opacity:1;"
   offset="1"
   id="stop2050" /></linearGradient><path
   d="M 47.3 31 L 48.5 31.3 L 48.6 31 L 47.3 31 L 47.3 31 z "
   style="fill:url(#aigrd104);"
   id="path2051" /><path
   d="M 47.4 30.7 L 47.3 31 L 48.6 31 L 47.4 30.7 L 47.4 30.7 z "
   id="path2052" /></g></g></g></g></g><g
   transform="matrix(0.348803,7.673147e-2,-7.673147e-2,0.348803,160.1631,-52.15219)"
   id="g2622"><path
   d="M 184.1155 485.4331 L 245.4874 450 L 306.8593 485.4331 L 309.0378 554.0898 L 245.4874 591.7323 L 184.1155 556.2992 L 184.1155 485.4331 z "
   style="fill:#800000;fill-rule:evenodd;stroke:#000000;stroke-width:3.5433;"
   id="path2623" /><path
   d="M 306.8593 556.2992 L 368.2311 591.7323 L 368.2311 662.5984 L 306.8593 698.0315 L 245.4874 662.5984 L 245.4874 591.7323 L 306.8593 556.2992 z "
   style="fill:#008000;fill-rule:evenodd;stroke:#000000;stroke-width:3.5433;"
   id="path2624" /><path
   d="M 184.1155 556.2939 L 122.7437 591.7283 L 122.7437 662.597 L 184.1155 698.0314 L 245.4874 662.597 L 245.4874 591.7283 L 184.1155 556.2939 z "
   style="fill:#c37f41;fill-rule:evenodd;stroke:#000000;stroke-width:3.543365;"
   id="path2625" /><ellipse
   cx="276.17334"
   cy="538.582642"
   rx="30.6859283"
   ry="17.7165222"
   transform="matrix(0.814706,0,0,1.411112,81.85915,-132.835)"
   style="fill:#ffdab9;fill-rule:evenodd;stroke:#000000;stroke-width:1.6523;"
   id="path2626" /><ellipse
   cx="276.17334"
   cy="538.582642"
   rx="30.6859283"
   ry="17.7165222"
   transform="matrix(0.814706,0,0,1.411112,-40.88452,-132.835)"
   style="fill:#ffdab9;fill-rule:evenodd;stroke:#000000;stroke-width:1.6523;"
   id="path2627" /><ellipse
   cx="276.17334"
   cy="538.582642"
   rx="30.6859283"
   ry="17.7165222"
   transform="matrix(0.814706,0,0,1.411112,21.57656,-239.1342)"
   style="fill:#ffdab9;fill-rule:evenodd;stroke:#000000;stroke-width:1.6523;"
   id="path2628" /><text
   x="95.3142548"
   y="212.637573"
   transform="translate(141.3132,320.9463)"
   style="font-size:36;font-weight:normal;fill:#ff0000;stroke-width:1;font-family:FreeSans;"
   id="text2629"><tspan
   id="tspan2630">8</tspan></text><text
   x="70.7458191"
   y="254.86348"
   transform="translate(104.0006,385.1866)"
   style="font-size:36;font-weight:normal;stroke-width:1;font-family:FreeSans;"
   id="text2632"><tspan
   id="tspan2633">4</tspan></text><text
   x="88.1663055"
   y="224.654419"
   transform="translate(208.7261,415.2287)"
   style="font-size:36;font-weight:normal;stroke-width:1;font-family:FreeSans;"
   id="text2635"><tspan
   id="tspan2636">9</tspan></text></g></g></svg>
